<svg width="17" height="17" viewBox="0 0 17 17" fill="none" xmlns="http://www.w3.org/2000/svg">
<g clip-path="url(#clip0_882_447)">
<path d="M15.3945 6.90912L12.2125 3.72714C11.9197 3.43439 11.4449 3.43404 11.1518 3.72714C10.8587 4.02023 10.8591 4.49505 11.1518 4.7878L14.1143 7.75022L1.07556 7.74987C0.661545 7.74951 0.325315 8.08574 0.325669 8.49975C0.325669 8.70693 0.409814 8.89432 0.545579 9.03008C0.681343 9.16585 0.868727 9.24999 1.07591 9.24999H14.1143L11.1518 12.2124C10.8587 12.5055 10.8591 12.9803 11.1518 13.2731C11.4446 13.5658 11.9194 13.5662 12.2125 13.2731L15.3945 10.0911C16.2716 9.21393 16.2716 7.78628 15.3945 6.90912Z" fill="white"/>
</g>
<defs>
<clipPath id="clip0_882_447">
<rect width="12" height="12" fill="white" transform="translate(8.5 0.0146484) rotate(45)"/>
</clipPath>
</defs>
</svg>
