<svg width="17" height="10" viewBox="0 0 17 10" fill="none" xmlns="http://www.w3.org/2000/svg">
<path d="M15.4081 3.41009L12.2262 0.228112C11.9334 -0.06463 11.4586 -0.0649835 11.1655 0.228112C10.8724 0.521208 10.8728 0.99603 11.1655 1.28877L14.1279 4.2512L1.08923 4.25084C0.675217 4.25049 0.338987 4.58672 0.339341 5.00073C0.339341 5.20791 0.423486 5.3953 0.559251 5.53106C0.695015 5.66682 0.882399 5.75097 1.08958 5.75097H14.1279L11.1655 8.71339C10.8724 9.00649 10.8728 9.48131 11.1655 9.77405C11.4582 10.0668 11.9331 10.0671 12.2262 9.77405L15.4081 6.59207C16.2853 5.71491 16.2853 4.28726 15.4081 3.41009Z" fill="#002868"/>
</svg>
