<svg width="32" height="32" viewBox="0 0 32 32" fill="none" xmlns="http://www.w3.org/2000/svg">
<path d="M16 32C7.17733 32 0 24.8227 0 16C0 7.17733 7.17733 0 16 0C24.8227 0 32 7.17733 32 16C32 24.8227 24.8227 32 16 32ZM16 2.66667C8.648 2.66667 2.66667 8.648 2.66667 16C2.66667 23.352 8.648 29.3333 16 29.3333C23.352 29.3333 29.3333 23.352 29.3333 16C29.3333 8.648 23.352 2.66667 16 2.66667ZM20.384 17.4867L18.0173 19.8533C15.3147 18.8227 13.3227 16.9093 12.1467 13.9827L14.5133 11.616L10.8973 8L9.06 9.83733C8.34 10.556 8 11.5027 8 12.4467C8 17.6653 14.7093 24.0013 19.5547 24.0013C20.4987 24.0013 21.4453 23.66 22.164 22.9413L24.0013 21.104L20.3853 17.488L20.384 17.4867Z" fill="#002868" fill-opacity="0.8"/>
</svg>
