<svg width="32" height="31" viewBox="0 0 32 31" fill="none" xmlns="http://www.w3.org/2000/svg">
<path d="M25.3333 0.833984H6.66667C4.89921 0.836102 3.20474 1.53916 1.95496 2.78894C0.705176 4.03873 0.00211714 5.73319 0 7.50065L0 23.5007C0.00211714 25.2681 0.705176 26.9626 1.95496 28.2124C3.20474 29.4621 4.89921 30.1652 6.66667 30.1673H25.3333C27.1008 30.1652 28.7953 29.4621 30.045 28.2124C31.2948 26.9626 31.9979 25.2681 32 23.5007V7.50065C31.9979 5.73319 31.2948 4.03873 30.045 2.78894C28.7953 1.53916 27.1008 0.836102 25.3333 0.833984ZM6.66667 3.50065H25.3333C26.1317 3.50222 26.9114 3.74267 27.5719 4.19106C28.2325 4.63944 28.7438 5.27525 29.04 6.01665L18.8293 16.2287C18.0779 16.9771 17.0606 17.3973 16 17.3973C14.9394 17.3973 13.9221 16.9771 13.1707 16.2287L2.96 6.01665C3.2562 5.27525 3.76748 4.63944 4.42806 4.19106C5.08864 3.74267 5.86829 3.50222 6.66667 3.50065ZM25.3333 27.5007H6.66667C5.6058 27.5007 4.58839 27.0792 3.83824 26.3291C3.08809 25.5789 2.66667 24.5615 2.66667 23.5007V9.50065L11.2853 18.114C12.5368 19.3623 14.2323 20.0634 16 20.0634C17.7677 20.0634 19.4632 19.3623 20.7147 18.114L29.3333 9.50065V23.5007C29.3333 24.5615 28.9119 25.5789 28.1618 26.3291C27.4116 27.0792 26.3942 27.5007 25.3333 27.5007Z" fill="#002868" fill-opacity="0.8"/>
</svg>
