<svg width="32" height="32" viewBox="0 0 32 32" fill="none" xmlns="http://www.w3.org/2000/svg">
<g clip-path="url(#clip0_785_2622)">
<path d="M15.9436 32.01L15.0142 31.2133C13.7329 30.1405 2.54492 20.4782 2.54492 13.4104C2.54492 6.01053 8.54373 0.0117188 15.9436 0.0117188C23.3435 0.0117188 29.3423 6.01053 29.3423 13.4104C29.3423 20.4782 18.1544 30.1405 16.8784 31.2187L15.9436 32.01ZM15.9436 2.90891C10.1465 2.91547 5.44873 7.61328 5.44217 13.4103C5.44217 17.8505 12.3254 24.9435 15.9436 28.1899C19.5619 24.9422 26.445 17.8451 26.445 13.4103C26.4385 7.61328 21.7407 2.91553 15.9436 2.90891Z" fill="#002868" fill-opacity="0.8"/>
<path d="M15.9439 18.7219C13.0107 18.7219 10.6328 16.344 10.6328 13.4107C10.6328 10.4775 13.0107 8.09961 15.9439 8.09961C18.8772 8.09961 21.2551 10.4775 21.2551 13.4107C21.2551 16.344 18.8772 18.7219 15.9439 18.7219ZM15.9439 10.7551C14.4773 10.7551 13.2884 11.944 13.2884 13.4107C13.2884 14.8773 14.4773 16.0662 15.9439 16.0662C17.4106 16.0662 18.5995 14.8773 18.5995 13.4107C18.5995 11.944 17.4106 10.7551 15.9439 10.7551Z" fill="#002868" fill-opacity="0.8"/>
</g>
<defs>
<clipPath id="clip0_785_2622">
<rect width="32" height="32" fill="white"/>
</clipPath>
</defs>
</svg>
