<svg width="40" height="40" viewBox="0 0 40 40" fill="none" xmlns="http://www.w3.org/2000/svg">
<rect width="40" height="40" rx="20" fill="white"/>
<path d="M29 14.1844C28.3797 14.6082 27.6514 14.8333 26.907 14.8312C27.7028 14.3483 28.2987 13.581 28.5814 12.6752C27.9217 13.2497 27.0904 13.5732 26.2267 13.5915C25.6573 12.9908 24.9141 12.5965 24.1087 12.4678C23.3032 12.339 22.479 12.4829 21.7596 12.8777C21.0402 13.2724 20.4646 13.8969 20.119 14.6573C19.7734 15.4177 19.6766 16.273 19.843 17.0949C18.3776 17.0152 16.9448 16.6189 15.6376 15.9318C14.3305 15.2447 13.1783 14.282 12.2558 13.1064C11.8044 13.9478 11.6722 14.9318 11.8849 15.8678C12.0976 16.8039 12.64 17.6252 13.407 18.1729C12.8281 18.1813 12.2551 18.0522 11.7326 17.7956C11.7466 18.6638 12.043 19.5021 12.5742 20.1763C13.1054 20.8505 13.8408 21.3218 14.6628 21.5146C14.1157 21.6618 13.5434 21.6802 12.9884 21.5685C13.2278 22.3376 13.6942 23.0107 14.3227 23.4938C14.9511 23.9768 15.7102 24.2459 16.4942 24.2634C14.8385 25.298 12.9365 25.8391 11 25.8265C12.6218 26.9171 14.5057 27.5228 16.4419 27.5759C18.3781 27.6291 20.2906 27.1278 21.9666 26.1277C23.6426 25.1277 25.0162 23.6681 25.9347 21.9116C26.8531 20.155 27.2803 18.1704 27.1686 16.1786C27.8591 15.597 28.4745 14.9268 29 14.1844Z" fill="#BF0A30"/>
</svg>
