<svg width="40" height="40" viewBox="0 0 40 40" fill="none" xmlns="http://www.w3.org/2000/svg">
<rect width="40" height="40" rx="20" fill="white"/>
<rect x="0.5" y="0.5" width="39" height="39" rx="19.5" stroke="white" stroke-opacity="0.125"/>
<path d="M29.1438 15.125C28.9031 14.25 28.3016 13.625 27.4594 13.375C26.0156 13 19.8797 13 19.8797 13C19.8797 13 13.8641 13 12.3 13.375C11.4578 13.625 10.8562 14.25 10.6156 15.125C10.375 16.75 10.375 20 10.375 20C10.375 20 10.375 23.25 10.7359 24.875C10.9766 25.75 11.5781 26.375 12.4203 26.625C13.8641 27 20 27 20 27C20 27 26.0156 27 27.5797 26.625C28.4219 26.375 29.0235 25.75 29.2641 24.875C29.625 23.25 29.625 20 29.625 20C29.625 20 29.625 16.75 29.1438 15.125ZM18.075 23V17L23.1281 20L18.075 23Z" fill="#BF0A30"/>
</svg>
